# xmcd
#
# Track frame offsets: 
#        155
#        20362
#        36896
#        50776
#        70817
#        91871
#        106584
#        125758
#        147446
#        170219
#
# Disc length: 2615 seconds
#
# Revision: 0
# Processed by: cddbd v1.5.2PL0 Copyright (c) Steve Scherf et al.
# Submitted via: ExactAudioCopy v0.99pb4
#
DISCID=8c0a350a
DTITLE=Zdrowa Woda - Zdrowa Woda
DYEAR=1996
DGENRE=Blues
TTITLE0=Lucky Man
TTITLE1=Nie badz kiep
TTITLE2=Garniesz sie do mnie
TTITLE3=Szklana milosc
TTITLE4=Lina
TTITLE5=Czestochowa
TTITLE6=Kochaj mnie kochaj
TTITLE7=Piwo
TTITLE8=Balanga
TTITLE9=Tyle chcialem Ci powiedziec
EXTD=
EXTT0=
EXTT1=
EXTT2=
EXTT3=
EXTT4=
EXTT5=
EXTT6=
EXTT7=
EXTT8=
EXTT9=
PLAYORDER=
